<svg width="153" height="51" viewBox="0 0 153 51" fill="none" xmlns="http://www.w3.org/2000/svg">
<g id="Vector">
<path d="M31.5489 10.6771C31.5489 16.5739 26.5537 21.3543 25.278 21.3543C23.6297 21.3543 19.0609 16.5739 19.0609 10.6771C19.0609 4.78031 24.3069 0 25.278 0C26.2491 0 31.5489 4.78031 31.5489 10.6771Z" fill="url(#paint0_linear_76_1164)"/>
<path d="M32.9609 19.7341C29.3465 22.3788 24.1762 21.4887 23.6041 20.7139C22.8649 19.7128 23.7459 14.794 27.3603 12.1494C30.9747 9.50476 36.2574 10.5471 36.6929 11.1369C37.1285 11.7267 36.5753 17.0895 32.9609 19.7341Z" fill="url(#paint1_linear_76_1164)"/>
<path d="M41.1021 30.6281C35.1782 30.6206 30.3824 25.6421 30.384 24.3721C30.3861 22.7314 35.1942 18.1895 41.118 18.197C47.0418 18.2045 51.8373 23.4327 51.8361 24.3994C51.8348 25.3661 47.0259 30.6356 41.1021 30.6281Z" fill="url(#paint2_linear_76_1164)"/>
<path d="M32.0017 32.0221C29.3496 28.4208 30.2503 23.2752 31.0294 22.7067C32.036 21.9721 36.9762 22.8553 39.6284 26.4566C42.2805 30.0579 41.2267 35.3152 40.6336 35.748C40.0405 36.1808 34.6538 35.6234 32.0017 32.0221Z" fill="url(#paint3_linear_76_1164)"/>
<path d="M20.4128 40.2587C20.4128 34.3264 25.438 29.5174 26.7214 29.5174C28.3797 29.5174 32.9759 34.3264 32.9759 40.2587C32.9759 46.191 27.6984 51 26.7214 51C25.7445 51 20.4128 46.191 20.4128 40.2587Z" fill="url(#paint4_linear_76_1164)"/>
<path d="M18.9928 31.1472C22.6289 28.4866 27.8303 29.382 28.4059 30.1615C29.1495 31.1686 28.2632 36.117 24.6271 38.7775C20.991 41.4381 15.6765 40.3895 15.2383 39.7961C14.8002 39.2027 15.3567 33.8077 18.9928 31.1472Z" fill="url(#paint5_linear_76_1164)"/>
<path d="M10.7985 20.188C16.7579 20.1956 21.5826 25.2041 21.581 26.4816C21.5789 28.1323 16.7419 32.7014 10.7825 32.6939C4.82309 32.6863 -0.00124535 27.4267 2.41146e-07 26.4542C0.00124584 25.4817 4.83911 20.1805 10.7985 20.188Z" fill="url(#paint6_linear_76_1164)"/>
<path d="M19.9532 18.7854C22.6213 22.4083 21.7152 27.5848 20.9314 28.1568C19.9187 28.8958 14.9488 28.0072 12.2808 24.3843C9.6127 20.7614 10.6728 15.4724 11.2695 15.037C11.8662 14.6016 17.2852 15.1624 19.9532 18.7854Z" fill="url(#paint7_linear_76_1164)"/>
<path d="M63.4758 16.376C62.8983 16.376 62.4535 16.5594 62.1414 16.9261C61.8293 17.2929 61.6732 17.7923 61.6732 18.4244C61.6732 18.8614 61.6966 19.2788 61.7434 19.6768C61.7981 20.067 61.8527 20.4532 61.9073 20.8356C61.9697 21.2179 62.0244 21.5964 62.0712 21.971C62.1258 22.3377 62.1531 22.7084 62.1531 23.0829C62.1531 23.3717 62.1102 23.6487 62.0244 23.914C61.9385 24.1715 61.8176 24.4056 61.6615 24.6163C61.5054 24.827 61.3143 25.0103 61.088 25.1664C60.8695 25.3147 60.6237 25.4239 60.3506 25.4941C60.8968 25.6502 61.3338 25.9467 61.6615 26.3837C61.9892 26.8207 62.1531 27.3318 62.1531 27.9171C62.1531 28.2916 62.1258 28.6662 62.0712 29.0407C62.0244 29.4075 61.9697 29.782 61.9073 30.1644C61.8527 30.5468 61.7981 30.9369 61.7434 31.3349C61.6966 31.7329 61.6732 32.1464 61.6732 32.5756C61.6732 33.2077 61.8293 33.7032 62.1414 34.0621C62.4535 34.4289 62.8983 34.6123 63.4758 34.6123H63.6396C63.7489 34.6123 63.8659 34.6552 63.9908 34.741C64.1234 34.8269 64.1898 34.9595 64.1898 35.139V36.2744H63.5694C62.8749 36.2744 62.2702 36.1807 61.7551 35.9935C61.2479 35.8062 60.8227 35.5409 60.4793 35.1975C60.1438 34.862 59.8902 34.4562 59.7185 33.9802C59.5546 33.512 59.4727 32.9931 59.4727 32.4235C59.4727 32.0333 59.5 31.6509 59.5546 31.2764C59.617 30.894 59.6795 30.5156 59.7419 30.141C59.8121 29.7664 59.8746 29.3919 59.9292 29.0173C59.9916 28.6428 60.0228 28.2682 60.0228 27.8937C60.0228 27.402 59.898 27.0041 59.6483 26.6998C59.4064 26.3954 59.0318 26.2433 58.5246 26.2433V24.7567C59.0318 24.7567 59.4064 24.6046 59.6483 24.3002C59.898 23.9959 60.0228 23.598 60.0228 23.1063C60.0228 22.7318 59.9916 22.3572 59.9292 21.9827C59.8746 21.6081 59.8121 21.2336 59.7419 20.859C59.6795 20.4844 59.617 20.1099 59.5546 19.7353C59.5 19.353 59.4727 18.9667 59.4727 18.5765C59.4727 18.0069 59.5546 17.488 59.7185 17.0198C59.8902 16.5438 60.1438 16.138 60.4793 15.8025C60.8227 15.4591 61.2479 15.1938 61.7551 15.0065C62.2702 14.8193 62.8749 14.7256 63.5694 14.7256H64.1898V15.861C64.1898 16.0405 64.1234 16.1731 63.9908 16.259C63.8659 16.337 63.7489 16.376 63.6396 16.376H63.4758Z" fill="white"/>
<path d="M77.5884 26.8402C77.5884 27.7844 77.4714 28.635 77.2373 29.3919C77.011 30.141 76.6676 30.7809 76.2072 31.3115C75.7547 31.8343 75.1889 32.2401 74.51 32.5288C73.8389 32.8097 73.0586 32.9502 72.169 32.9502C71.7633 32.9502 71.3614 32.9229 70.9634 32.8682C70.5655 32.8214 70.1519 32.7434 69.7227 32.6341L69.8632 30.9955C69.8866 30.8394 69.9451 30.7145 70.0388 30.6209C70.1402 30.5273 70.2846 30.4804 70.4718 30.4804C70.6123 30.4804 70.7918 30.5117 71.0103 30.5741C71.2366 30.6287 71.5292 30.656 71.8881 30.656C72.3641 30.656 72.7855 30.5858 73.1523 30.4453C73.5268 30.3049 73.8389 30.0864 74.0887 29.7899C74.3462 29.4855 74.5373 29.0993 74.6622 28.6311C74.7948 28.1551 74.8612 27.5815 74.8612 26.9104V15.9078H77.5884V26.8402Z" fill="white"/>
<path d="M96.6272 30.5507L96.6155 32.7629H86.1045V15.9078H96.6155V18.12H88.8551V23.2H95.0587V25.342H88.8551V30.5507H96.6272Z" fill="white"/>
<path d="M113.194 26.4422L110.876 20.2855C110.689 19.8095 110.498 19.2047 110.303 18.4712C110.217 18.8379 110.123 19.1774 110.022 19.4895C109.92 19.7939 109.827 20.0631 109.741 20.2972L107.423 26.4422H113.194ZM118.379 32.7629H116.26C116.018 32.7629 115.823 32.7044 115.675 32.5873C115.527 32.4625 115.414 32.3103 115.336 32.1308L113.931 28.4087H106.674L105.269 32.1308C105.207 32.2869 105.098 32.4313 104.942 32.5639C104.786 32.6966 104.591 32.7629 104.356 32.7629H102.238L108.921 15.9078H111.695L118.379 32.7629Z" fill="white"/>
<path d="M138.98 15.9078V32.7629H137.587C137.377 32.7629 137.197 32.7278 137.049 32.6576C136.901 32.5795 136.76 32.4547 136.627 32.283L127.369 20.3908C127.392 20.6171 127.408 20.8434 127.416 21.0697C127.431 21.2882 127.439 21.4911 127.439 21.6783V32.7629H125.028V15.9078H126.456C126.573 15.9078 126.671 15.9156 126.749 15.9312C126.834 15.939 126.912 15.9585 126.983 15.9898C127.053 16.021 127.119 16.0678 127.182 16.1302C127.244 16.1926 127.31 16.2707 127.381 16.3643L136.651 28.2682C136.627 28.0263 136.608 27.7883 136.592 27.5542C136.585 27.3201 136.581 27.1016 136.581 26.8987V15.9078H138.98Z" fill="white"/>
<path d="M152.056 26.2433C151.549 26.2433 151.171 26.3954 150.921 26.6998C150.679 27.0041 150.558 27.402 150.558 27.8937C150.558 28.2682 150.585 28.6428 150.64 29.0173C150.703 29.3919 150.765 29.7664 150.827 30.141C150.898 30.5156 150.96 30.894 151.015 31.2764C151.077 31.6509 151.108 32.0333 151.108 32.4235C151.108 32.9931 151.022 33.512 150.851 33.9802C150.687 34.4562 150.433 34.862 150.09 35.1975C149.754 35.5409 149.329 35.8062 148.814 35.9935C148.307 36.1807 147.71 36.2744 147.023 36.2744H146.391V35.139C146.391 34.9595 146.458 34.8269 146.59 34.741C146.723 34.6552 146.84 34.6123 146.941 34.6123H147.117C147.687 34.6123 148.127 34.4289 148.44 34.0621C148.76 33.7032 148.919 33.2077 148.919 32.5756C148.919 32.1464 148.892 31.7329 148.838 31.3349C148.791 30.9369 148.736 30.5468 148.674 30.1644C148.611 29.782 148.553 29.4075 148.498 29.0407C148.451 28.6662 148.428 28.2916 148.428 27.9171C148.428 27.3318 148.592 26.8207 148.919 26.3837C149.247 25.9467 149.684 25.6502 150.23 25.4941C149.957 25.4239 149.708 25.3147 149.481 25.1664C149.263 25.0103 149.076 24.827 148.919 24.6163C148.763 24.4056 148.642 24.1715 148.557 23.914C148.471 23.6487 148.428 23.3717 148.428 23.0829C148.428 22.7084 148.451 22.3377 148.498 21.971C148.553 21.5964 148.611 21.2179 148.674 20.8356C148.736 20.4532 148.791 20.067 148.838 19.6768C148.892 19.2788 148.919 18.8614 148.919 18.4244C148.919 17.7923 148.76 17.2929 148.44 16.9261C148.127 16.5594 147.687 16.376 147.117 16.376H146.941C146.84 16.376 146.723 16.337 146.59 16.259C146.458 16.1731 146.391 16.0405 146.391 15.861V14.7256H147.023C147.71 14.7256 148.307 14.8193 148.814 15.0065C149.329 15.1938 149.754 15.4591 150.09 15.8025C150.433 16.138 150.687 16.5438 150.851 17.0198C151.022 17.488 151.108 18.0069 151.108 18.5765C151.108 18.9667 151.077 19.353 151.015 19.7353C150.96 20.1099 150.898 20.4844 150.827 20.859C150.765 21.2336 150.703 21.6081 150.64 21.9827C150.585 22.3572 150.558 22.7318 150.558 23.1063C150.558 23.598 150.679 23.9959 150.921 24.3002C151.171 24.6046 151.549 24.7567 152.056 24.7567V26.2433Z" fill="white"/>
</g>
<defs>
<linearGradient id="paint0_linear_76_1164" x1="76.0282" y1="0" x2="76.0282" y2="51" gradientUnits="userSpaceOnUse">
<stop stop-color="#D8A0E6"/>
<stop offset="1" stop-color="#8612AF"/>
</linearGradient>
<linearGradient id="paint1_linear_76_1164" x1="74.4851" y1="0.588788" x2="74.3326" y2="50.063" gradientUnits="userSpaceOnUse">
<stop stop-color="#70BFE8"/>
<stop offset="1" stop-color="#1E68A4"/>
</linearGradient>
<linearGradient id="paint2_linear_76_1164" x1="76.0282" y1="0" x2="76.0282" y2="51" gradientUnits="userSpaceOnUse">
<stop stop-color="#D8A0E6"/>
<stop offset="1" stop-color="#8612AF"/>
</linearGradient>
<linearGradient id="paint3_linear_76_1164" x1="74.4851" y1="0.588788" x2="74.3326" y2="50.063" gradientUnits="userSpaceOnUse">
<stop stop-color="#70BFE8"/>
<stop offset="1" stop-color="#1E68A4"/>
</linearGradient>
<linearGradient id="paint4_linear_76_1164" x1="76.0282" y1="0" x2="76.0282" y2="51" gradientUnits="userSpaceOnUse">
<stop stop-color="#D8A0E6"/>
<stop offset="1" stop-color="#8612AF"/>
</linearGradient>
<linearGradient id="paint5_linear_76_1164" x1="74.4851" y1="0.588788" x2="74.3326" y2="50.063" gradientUnits="userSpaceOnUse">
<stop stop-color="#70BFE8"/>
<stop offset="1" stop-color="#1E68A4"/>
</linearGradient>
<linearGradient id="paint6_linear_76_1164" x1="76.0282" y1="0" x2="76.0282" y2="51" gradientUnits="userSpaceOnUse">
<stop stop-color="#D8A0E6"/>
<stop offset="1" stop-color="#8612AF"/>
</linearGradient>
<linearGradient id="paint7_linear_76_1164" x1="74.4851" y1="0.588788" x2="74.3326" y2="50.063" gradientUnits="userSpaceOnUse">
<stop stop-color="#70BFE8"/>
<stop offset="1" stop-color="#1E68A4"/>
</linearGradient>
</defs>
</svg>
