<svg width="41" height="41" viewBox="0 0 41 41" fill="none" xmlns="http://www.w3.org/2000/svg">
<g id="User">
<path id="Vector" d="M35.8943 33.7812C33.424 29.5124 29.5459 26.5171 25.0396 25.2468C27.2305 24.1331 28.9824 22.3141 30.0129 20.0829C31.0434 17.8517 31.2925 15.3385 30.7199 12.9485C30.1473 10.5584 28.7864 8.43089 26.8567 6.90891C24.9271 5.38693 22.541 4.5592 20.0834 4.5592C17.6257 4.5592 15.2397 5.38693 13.31 6.90891C11.3803 8.43089 10.0194 10.5584 9.44686 12.9485C8.87426 15.3385 9.1233 17.8517 10.1538 20.0829C11.1843 22.3141 12.9363 24.1331 15.1271 25.2468C10.6209 26.5156 6.74274 29.5109 4.27243 33.7812C4.2046 33.8879 4.15905 34.0072 4.13853 34.132C4.11801 34.2567 4.12294 34.3844 4.15302 34.5072C4.1831 34.63 4.23771 34.7454 4.31357 34.8466C4.38943 34.9477 4.48496 35.0325 4.59443 35.0958C4.7039 35.1591 4.82504 35.1995 4.95055 35.2148C5.07607 35.23 5.20337 35.2197 5.32481 35.1845C5.44624 35.1493 5.55929 35.0898 5.65716 35.0098C5.75503 34.9297 5.83569 34.8307 5.8943 34.7187C8.89586 29.5327 14.199 26.4374 20.0834 26.4374C25.9677 26.4374 31.2709 29.5327 34.2724 34.7187C34.331 34.8307 34.4117 34.9297 34.5096 35.0098C34.6074 35.0898 34.7205 35.1493 34.8419 35.1845C34.9634 35.2197 35.0907 35.23 35.2162 35.2148C35.3417 35.1995 35.4628 35.1591 35.5723 35.0958C35.6818 35.0325 35.7773 34.9477 35.8532 34.8466C35.929 34.7454 35.9836 34.63 36.0137 34.5072C36.0438 34.3844 36.0487 34.2567 36.0282 34.132C36.0077 34.0072 35.9621 33.8879 35.8943 33.7812ZM11.0209 15.4999C11.0209 13.7075 11.5524 11.9554 12.5482 10.4651C13.544 8.97476 14.9593 7.81319 16.6153 7.12727C18.2713 6.44135 20.0934 6.26189 21.8514 6.61156C23.6093 6.96124 25.2241 7.82436 26.4915 9.09178C27.7589 10.3592 28.6221 11.974 28.9717 13.7319C29.3214 15.4899 29.1419 17.312 28.456 18.968C27.7701 20.624 26.6085 22.0393 25.1182 23.0351C23.6279 24.0309 21.8758 24.5624 20.0834 24.5624C17.6807 24.5595 15.3773 23.6038 13.6784 21.9049C11.9795 20.206 11.0238 17.9026 11.0209 15.4999Z" fill="white"/>
</g>
</svg>
