<svg width="400" height="400" viewBox="0 0 400 400" fill="none" xmlns="http://www.w3.org/2000/svg">
<rect width="400" height="400" fill="#001735"/>
<path d="M221.418 115.36C221.418 137.892 202.418 156.159 197.565 156.159C191.296 156.159 173.917 137.892 173.917 115.36C173.917 92.8272 193.872 74.5609 197.565 74.5609C201.259 74.5609 221.418 92.8272 221.418 115.36Z" fill="url(#paint0_linear_1_81)"/>
<path d="M226.789 149.968C213.041 160.073 193.375 156.672 191.198 153.712C188.387 149.886 191.738 131.091 205.486 120.985C219.234 110.88 239.328 114.863 240.985 117.117C242.641 119.37 240.537 139.862 226.789 149.968Z" fill="url(#paint1_linear_1_81)"/>
<path d="M257.756 191.595C235.223 191.566 216.981 172.543 216.988 167.69C216.996 161.421 235.284 144.066 257.816 144.094C280.349 144.123 298.59 164.1 298.585 167.794C298.58 171.488 280.288 191.624 257.756 191.595Z" fill="url(#paint2_linear_1_81)"/>
<path d="M223.141 196.922C213.053 183.161 216.479 163.499 219.442 161.326C223.271 158.519 242.062 161.894 252.15 175.655C262.238 189.416 258.23 209.505 255.974 211.159C253.718 212.813 233.229 210.683 223.141 196.922Z" fill="url(#paint3_linear_1_81)"/>
<path d="M179.06 228.395C179.06 205.727 198.174 187.351 203.056 187.351C209.363 187.351 226.846 205.727 226.846 228.395C226.846 251.063 206.772 269.439 203.056 269.439C199.34 269.439 179.06 251.063 179.06 228.395Z" fill="url(#paint4_linear_1_81)"/>
<path d="M173.658 193.579C187.489 183.412 207.274 186.834 209.463 189.812C212.292 193.661 208.92 212.569 195.09 222.735C181.259 232.901 161.044 228.895 159.377 226.627C157.711 224.36 159.828 203.745 173.658 193.579Z" fill="url(#paint5_linear_1_81)"/>
<path d="M142.49 151.702C165.158 151.731 183.509 170.869 183.503 175.751C183.495 182.058 165.097 199.518 142.429 199.489C119.761 199.46 101.41 179.362 101.415 175.646C101.42 171.93 119.822 151.673 142.49 151.702Z" fill="url(#paint6_linear_1_81)"/>
<path d="M177.312 146.342C187.46 160.186 184.014 179.966 181.032 182.152C177.18 184.976 158.276 181.58 148.128 167.737C137.979 153.893 142.012 133.683 144.281 132.019C146.551 130.356 167.163 132.499 177.312 146.342Z" fill="url(#paint7_linear_1_81)"/>
<path d="M117.335 294.639C116.25 294.639 115.414 294.984 114.827 295.673C114.24 296.362 113.947 297.301 113.947 298.489C113.947 299.31 113.991 300.095 114.079 300.843C114.182 301.576 114.284 302.302 114.387 303.021C114.504 303.74 114.607 304.451 114.695 305.155C114.798 305.844 114.849 306.541 114.849 307.245C114.849 307.788 114.768 308.308 114.607 308.807C114.446 309.291 114.218 309.731 113.925 310.127C113.632 310.523 113.272 310.868 112.847 311.161C112.436 311.44 111.974 311.645 111.461 311.777C112.488 312.07 113.309 312.628 113.925 313.449C114.541 314.27 114.849 315.231 114.849 316.331C114.849 317.035 114.798 317.739 114.695 318.443C114.607 319.132 114.504 319.836 114.387 320.555C114.284 321.274 114.182 322.007 114.079 322.755C113.991 323.503 113.947 324.28 113.947 325.087C113.947 326.275 114.24 327.206 114.827 327.881C115.414 328.57 116.25 328.915 117.335 328.915H117.643C117.848 328.915 118.068 328.996 118.303 329.157C118.552 329.318 118.677 329.568 118.677 329.905V332.039H117.511C116.206 332.039 115.069 331.863 114.101 331.511C113.148 331.159 112.348 330.66 111.703 330.015C111.072 329.384 110.596 328.622 110.273 327.727C109.965 326.847 109.811 325.872 109.811 324.801C109.811 324.068 109.862 323.349 109.965 322.645C110.082 321.926 110.2 321.215 110.317 320.511C110.449 319.807 110.566 319.103 110.669 318.399C110.786 317.695 110.845 316.991 110.845 316.287C110.845 315.363 110.61 314.615 110.141 314.043C109.686 313.471 108.982 313.185 108.029 313.185V310.391C108.982 310.391 109.686 310.105 110.141 309.533C110.61 308.961 110.845 308.213 110.845 307.289C110.845 306.585 110.786 305.881 110.669 305.177C110.566 304.473 110.449 303.769 110.317 303.065C110.2 302.361 110.082 301.657 109.965 300.953C109.862 300.234 109.811 299.508 109.811 298.775C109.811 297.704 109.965 296.729 110.273 295.849C110.596 294.954 111.072 294.192 111.703 293.561C112.348 292.916 113.148 292.417 114.101 292.065C115.069 291.713 116.206 291.537 117.511 291.537H118.677V293.671C118.677 294.008 118.552 294.258 118.303 294.419C118.068 294.566 117.848 294.639 117.643 294.639H117.335ZM143.86 314.307C143.86 316.082 143.64 317.68 143.2 319.103C142.775 320.511 142.13 321.714 141.264 322.711C140.414 323.694 139.35 324.456 138.074 324.999C136.813 325.527 135.346 325.791 133.674 325.791C132.912 325.791 132.156 325.74 131.408 325.637C130.66 325.549 129.883 325.402 129.076 325.197L129.34 322.117C129.384 321.824 129.494 321.589 129.67 321.413C129.861 321.237 130.132 321.149 130.484 321.149C130.748 321.149 131.086 321.208 131.496 321.325C131.922 321.428 132.472 321.479 133.146 321.479C134.041 321.479 134.833 321.347 135.522 321.083C136.226 320.819 136.813 320.408 137.282 319.851C137.766 319.279 138.126 318.553 138.36 317.673C138.61 316.778 138.734 315.7 138.734 314.439V293.759H143.86V314.307ZM179.645 321.281L179.623 325.439H159.867V293.759H179.623V297.917H165.037V307.465H176.697V311.491H165.037V321.281H179.645ZM210.782 313.559L206.426 301.987C206.074 301.092 205.715 299.956 205.348 298.577C205.187 299.266 205.011 299.904 204.82 300.491C204.63 301.063 204.454 301.569 204.292 302.009L199.936 313.559H210.782ZM220.528 325.439H216.546C216.092 325.439 215.725 325.329 215.446 325.109C215.168 324.874 214.955 324.588 214.808 324.251L212.168 317.255H198.528L195.888 324.251C195.771 324.544 195.566 324.816 195.272 325.065C194.979 325.314 194.612 325.439 194.172 325.439H190.19L202.752 293.759H207.966L220.528 325.439ZM259.249 293.759V325.439H256.631C256.235 325.439 255.898 325.373 255.619 325.241C255.341 325.094 255.077 324.86 254.827 324.537L237.425 302.185C237.469 302.61 237.499 303.036 237.513 303.461C237.543 303.872 237.557 304.253 237.557 304.605V325.439H233.025V293.759H235.709C235.929 293.759 236.113 293.774 236.259 293.803C236.421 293.818 236.567 293.854 236.699 293.913C236.831 293.972 236.956 294.06 237.073 294.177C237.191 294.294 237.315 294.441 237.447 294.617L254.871 316.991C254.827 316.536 254.791 316.089 254.761 315.649C254.747 315.209 254.739 314.798 254.739 314.417V293.759H259.249ZM283.827 313.185C282.873 313.185 282.162 313.471 281.693 314.043C281.238 314.615 281.011 315.363 281.011 316.287C281.011 316.991 281.062 317.695 281.165 318.399C281.282 319.103 281.399 319.807 281.517 320.511C281.649 321.215 281.766 321.926 281.869 322.645C281.986 323.349 282.045 324.068 282.045 324.801C282.045 325.872 281.883 326.847 281.561 327.727C281.253 328.622 280.776 329.384 280.131 330.015C279.5 330.66 278.701 331.159 277.733 331.511C276.779 331.863 275.657 332.039 274.367 332.039H273.179V329.905C273.179 329.568 273.303 329.318 273.553 329.157C273.802 328.996 274.022 328.915 274.213 328.915H274.543C275.613 328.915 276.442 328.57 277.029 327.881C277.63 327.206 277.931 326.275 277.931 325.087C277.931 324.28 277.879 323.503 277.777 322.755C277.689 322.007 277.586 321.274 277.469 320.555C277.351 319.836 277.241 319.132 277.139 318.443C277.051 317.739 277.007 317.035 277.007 316.331C277.007 315.231 277.315 314.27 277.931 313.449C278.547 312.628 279.368 312.07 280.395 311.777C279.881 311.645 279.412 311.44 278.987 311.161C278.576 310.868 278.224 310.523 277.931 310.127C277.637 309.731 277.41 309.291 277.249 308.807C277.087 308.308 277.007 307.788 277.007 307.245C277.007 306.541 277.051 305.844 277.139 305.155C277.241 304.451 277.351 303.74 277.469 303.021C277.586 302.302 277.689 301.576 277.777 300.843C277.879 300.095 277.931 299.31 277.931 298.489C277.931 297.301 277.63 296.362 277.029 295.673C276.442 294.984 275.613 294.639 274.543 294.639H274.213C274.022 294.639 273.802 294.566 273.553 294.419C273.303 294.258 273.179 294.008 273.179 293.671V291.537H274.367C275.657 291.537 276.779 291.713 277.733 292.065C278.701 292.417 279.5 292.916 280.131 293.561C280.776 294.192 281.253 294.954 281.561 295.849C281.883 296.729 282.045 297.704 282.045 298.775C282.045 299.508 281.986 300.234 281.869 300.953C281.766 301.657 281.649 302.361 281.517 303.065C281.399 303.769 281.282 304.473 281.165 305.177C281.062 305.881 281.011 306.585 281.011 307.289C281.011 308.213 281.238 308.961 281.693 309.533C282.162 310.105 282.873 310.391 283.827 310.391V313.185Z" fill="white"/>
<defs>
<linearGradient id="paint0_linear_1_81" x1="197.668" y1="74.5609" x2="197.668" y2="156.159" gradientUnits="userSpaceOnUse">
<stop stop-color="#D8A0E6"/>
<stop offset="1" stop-color="#8612AF"/>
</linearGradient>
<linearGradient id="paint1_linear_1_81" x1="240.24" y1="117.307" x2="191.394" y2="152.037" gradientUnits="userSpaceOnUse">
<stop stop-color="#70BFE8"/>
<stop offset="1" stop-color="#1E68A4"/>
</linearGradient>
<linearGradient id="paint2_linear_1_81" x1="298.585" y1="167.897" x2="216.987" y2="167.793" gradientUnits="userSpaceOnUse">
<stop stop-color="#D8A0E6"/>
<stop offset="1" stop-color="#8612AF"/>
</linearGradient>
<linearGradient id="paint3_linear_1_81" x1="255.784" y1="210.414" x2="221.117" y2="161.524" gradientUnits="userSpaceOnUse">
<stop stop-color="#70BFE8"/>
<stop offset="1" stop-color="#1E68A4"/>
</linearGradient>
<linearGradient id="paint4_linear_1_81" x1="202.953" y1="269.439" x2="202.953" y2="187.351" gradientUnits="userSpaceOnUse">
<stop stop-color="#D8A0E6"/>
<stop offset="1" stop-color="#8612AF"/>
</linearGradient>
<linearGradient id="paint5_linear_1_81" x1="160.127" y1="226.435" x2="209.266" y2="191.497" gradientUnits="userSpaceOnUse">
<stop stop-color="#70BFE8"/>
<stop offset="1" stop-color="#1E68A4"/>
</linearGradient>
<linearGradient id="paint6_linear_1_81" x1="101.415" y1="175.543" x2="183.503" y2="175.648" gradientUnits="userSpaceOnUse">
<stop stop-color="#D8A0E6"/>
<stop offset="1" stop-color="#8612AF"/>
</linearGradient>
<linearGradient id="paint7_linear_1_81" x1="144.472" y1="132.769" x2="179.348" y2="181.953" gradientUnits="userSpaceOnUse">
<stop stop-color="#70BFE8"/>
<stop offset="1" stop-color="#1E68A4"/>
</linearGradient>
</defs>
</svg>
