<svg width="41" height="41" viewBox="0 0 41 41" fill="none" xmlns="http://www.w3.org/2000/svg">
<g id="Clock">
<path id="Vector" d="M20.25 4.5625C17.0979 4.5625 14.0165 5.49722 11.3956 7.24845C8.7747 8.99969 6.73195 11.4888 5.52568 14.401C4.31941 17.3132 4.00379 20.5177 4.61874 23.6093C5.23369 26.7008 6.75159 29.5406 8.98049 31.7695C11.2094 33.9984 14.0492 35.5163 17.1408 36.1313C20.2323 36.7462 23.4368 36.4306 26.349 35.2243C29.2612 34.0181 31.7503 31.9753 33.5016 29.3544C35.2528 26.7335 36.1875 23.6521 36.1875 20.5C36.1825 16.2746 34.5018 12.2238 31.514 9.23597C28.5263 6.24818 24.4754 4.56746 20.25 4.5625ZM20.25 34.5625C17.4687 34.5625 14.7499 33.7377 12.4373 32.1925C10.1247 30.6473 8.32231 28.4511 7.25795 25.8815C6.19359 23.3119 5.91511 20.4844 6.45771 17.7565C7.00032 15.0287 8.33964 12.523 10.3063 10.5563C12.273 8.58963 14.7787 7.25031 17.5065 6.70771C20.2344 6.1651 23.0619 6.44359 25.6315 7.50794C28.2011 8.5723 30.3973 10.3747 31.9425 12.6873C33.4878 14.9999 34.3125 17.7187 34.3125 20.5C34.3084 24.2283 32.8255 27.8028 30.1891 30.4391C27.5528 33.0755 23.9783 34.5584 20.25 34.5625ZM29.9375 20.5C29.9375 20.7486 29.8387 20.9871 29.6629 21.1629C29.4871 21.3387 29.2486 21.4375 29 21.4375H20.25C20.0014 21.4375 19.7629 21.3387 19.5871 21.1629C19.4113 20.9871 19.3125 20.7486 19.3125 20.5V11.75C19.3125 11.5014 19.4113 11.2629 19.5871 11.0871C19.7629 10.9113 20.0014 10.8125 20.25 10.8125C20.4986 10.8125 20.7371 10.9113 20.9129 11.0871C21.0887 11.2629 21.1875 11.5014 21.1875 11.75V19.5625H29C29.2486 19.5625 29.4871 19.6613 29.6629 19.8371C29.8387 20.0129 29.9375 20.2514 29.9375 20.5Z" fill="white"/>
</g>
</svg>
