<svg width="41" height="41" viewBox="0 0 41 41" fill="none" xmlns="http://www.w3.org/2000/svg">
<g id="CalendarCheck">
<path id="Vector" d="M32.9166 5.8125H28.8541V4.25C28.8541 4.00136 28.7554 3.7629 28.5795 3.58709C28.4037 3.41127 28.1653 3.3125 27.9166 3.3125C27.668 3.3125 27.4295 3.41127 27.2537 3.58709C27.0779 3.7629 26.9791 4.00136 26.9791 4.25V5.8125H13.8541V4.25C13.8541 4.00136 13.7554 3.7629 13.5795 3.58709C13.4037 3.41127 13.1653 3.3125 12.9166 3.3125C12.668 3.3125 12.4295 3.41127 12.2537 3.58709C12.0779 3.7629 11.9791 4.00136 11.9791 4.25V5.8125H7.91663C7.33646 5.8125 6.78007 6.04297 6.36983 6.4532C5.95959 6.86344 5.72913 7.41984 5.72913 8V33C5.72913 33.5802 5.95959 34.1366 6.36983 34.5468C6.78007 34.957 7.33646 35.1875 7.91663 35.1875H32.9166C33.4968 35.1875 34.0532 34.957 34.4634 34.5468C34.8737 34.1366 35.1041 33.5802 35.1041 33V8C35.1041 7.41984 34.8737 6.86344 34.4634 6.4532C34.0532 6.04297 33.4968 5.8125 32.9166 5.8125ZM7.91663 7.6875H11.9791V9.25C11.9791 9.49864 12.0779 9.7371 12.2537 9.91291C12.4295 10.0887 12.668 10.1875 12.9166 10.1875C13.1653 10.1875 13.4037 10.0887 13.5795 9.91291C13.7554 9.7371 13.8541 9.49864 13.8541 9.25V7.6875H26.9791V9.25C26.9791 9.49864 27.0779 9.7371 27.2537 9.91291C27.4295 10.0887 27.668 10.1875 27.9166 10.1875C28.1653 10.1875 28.4037 10.0887 28.5795 9.91291C28.7554 9.7371 28.8541 9.49864 28.8541 9.25V7.6875H32.9166C32.9995 7.6875 33.079 7.72042 33.1376 7.77903C33.1962 7.83763 33.2291 7.91712 33.2291 8V13.3125H7.60413V8C7.60413 7.91712 7.63705 7.83763 7.69565 7.77903C7.75426 7.72042 7.83375 7.6875 7.91663 7.6875ZM32.9166 33.3125H7.91663C7.83375 33.3125 7.75426 33.2796 7.69565 33.221C7.63705 33.1624 7.60413 33.0829 7.60413 33V15.1875H33.2291V33C33.2291 33.0829 33.1962 33.1624 33.1376 33.221C33.079 33.2796 32.9995 33.3125 32.9166 33.3125ZM26.7041 19.8375C26.8797 20.0133 26.9783 20.2516 26.9783 20.5C26.9783 20.7484 26.8797 20.9867 26.7041 21.1625L19.2041 28.6625C19.0283 28.8381 18.7901 28.9367 18.5416 28.9367C18.2932 28.9367 18.0549 28.8381 17.8791 28.6625L14.1291 24.9125C13.9635 24.7348 13.8734 24.4997 13.8777 24.2568C13.8819 24.014 13.9803 23.7822 14.1521 23.6105C14.3239 23.4387 14.5556 23.3403 14.7985 23.336C15.0413 23.3317 15.2764 23.4219 15.4541 23.5875L18.5416 26.6734L25.3791 19.8375C25.5549 19.6619 25.7932 19.5633 26.0416 19.5633C26.2901 19.5633 26.5283 19.6619 26.7041 19.8375Z" fill="white"/>
</g>
</svg>
