<svg xmlns="http://www.w3.org/2000/svg" width="400" height="180"><path d="M10 120.97h51.91v-14.74H26.52v-22H54.7V69.5H26.52V51.07h35.14V36.33H10v84.64zm93.23-62.65a31.2 31.2 0 0 0-15.45 4v-4.15h-15.1V121h15.46V83.52q0-5.82 3.31-8.8a11.24 11.24 0 0 1 7.48-2.49c7.29 0 10.74 6.42 10.74 11.29V121h14.8V81.38c0-7.53-2.42-13.39-6.62-17.59q-5.46-5.48-14.62-5.47m50.86-21.9h-14.93v22.12h-7.41v11.23h7.41v33.49a17.68 17.68 0 0 0 4.28 12.12q4.86 5.62 13.67 5.62h8.44v-13.11H160c-3.06 0-6-1.86-6-5.59V69.77h11V58.54h-10.91zM249.82 101V36.33h-14.9v66.92a17.68 17.68 0 0 0 4.28 12.13Q244.06 121 253 121h7.94v-14.85h-5c-3.61 0-6.08-1.43-6.08-5.16m43.93 42.68c18.18 0 26-11.31 26-25V58.32h-15v3.92c-3.75-2.4-9.3-3.92-15.48-3.92s-11.22 1.82-14.86 5.47a19.9 19.9 0 0 0-5.35 10.34 76.22 76.22 0 0 0-.95 14.15 76.1 76.1 0 0 0 .95 14.14 20 20 0 0 0 5.35 10.46q5.46 5.48 14.74 5.47t14.74-6.18v6.3c0 10.72-9.7 10.36-14 10.36h-14.7v14.84zm8.61-44.58q-2.25 5.35-8.63 5.35-6.15 0-8.39-5-1.65-3.57-1.65-11.17t1.65-11.06q2.25-5 8.39-5 6.39 0 8.63 5.35 1.53 3.45 1.54 10.7t-1.54 10.83m27.03-40.53l21.87 59s-2 4.94-2.62 6.58c-1.23 3.07-3 4.74-7.72 4.74h-2.62v14.76h5.11q8.57 0 13.32-4.75c1.82-1.83 3.22-4.54 4.63-8 1.5-3.65 6.61-13.33 6.61-13.33l-22.29-59zm45.72-.02H390v14.85h-14.85zm-177.1.02q-12.18 0-19.4 8.16-7.44 8.52-7.45 23.3 0 31.58 28.5 31.57a33 33 0 0 0 13.48-2.48 26.65 26.65 0 0 0 10.82-8.89l-11.11-7.43c-3.87 3.86-7.65 5.79-13.09 5.79q-6.27 0-9.88-3.78a11.79 11.79 0 0 1-3.6-9.07H224V88c0-8.68-1.46-15.69-6.11-21.05q-7.33-8.4-19.86-8.4m-11.69 26.66a21.8 21.8 0 0 1 1.42-7.49q2.84-6.39 10.29-6.39t10.28 6.39a21.8 21.8 0 0 1 1.42 7.49z"/></svg>