<svg width="142" height="40" viewBox="0 0 142 40" fill="none" xmlns="http://www.w3.org/2000/svg">
<g id="Logo" clip-path="url(#clip0_267_681)">
<path id="Vector" d="M6.15781 26.0474H19.3435V31.5399H0V0H19.2514V5.49252H6.15781V12.3584H16.6589V17.8509H6.15781V26.0474ZM34.7435 8.19462C32.41 8.19462 30.7633 8.78077 28.9846 9.70048V8.13665H23.3586V31.539H29.1176V17.585C29.1176 16.1389 29.5284 15.0458 30.3511 14.3069C31.026 13.6862 32.0824 13.3761 33.1401 13.3761C35.8565 13.3761 37.141 15.769 37.141 17.585V31.539H42.6589V16.7881C42.6589 13.9825 41.7562 11.7971 40.1914 10.2323C38.8328 8.87417 37.0167 8.19462 34.7435 8.19462ZM53.6752 24.5848V12.4596H57.7539V8.27559H53.695V0.0335864H48.1307V8.27559H45.3711V12.4596H48.1307V24.94C48.1307 26.7407 48.6621 28.2475 49.7258 29.4571C50.9358 30.8466 52.634 31.5399 54.8194 31.5399H57.9651V26.6667H55.9062C54.767 26.6667 53.6752 25.9729 53.6752 24.5848ZM89.3679 24.0971V0H83.8155V24.939C83.8155 26.7398 84.3469 28.2466 85.4102 29.4566C86.6202 30.8456 88.3336 31.539 90.5485 31.539H93.5068V26.0189H91.6347C90.2908 26.0189 89.3679 25.4847 89.3679 24.0971ZM109.857 8.19462H115.439V30.6975C115.439 35.7861 112.529 39.9995 105.756 39.9995H98.8379V34.4711H104.329C105.923 34.4711 109.536 34.6059 109.536 30.6087V28.2613C108.148 29.7966 106.317 30.5641 104.043 30.5641C101.77 30.5641 99.9085 29.8854 98.5508 28.5273C97.5464 27.5238 96.882 26.2236 96.5572 24.6289C96.3203 23.4773 96.2029 21.7207 96.2029 19.3577C96.2029 16.9947 96.3203 15.2381 96.5572 14.086C96.882 12.5213 97.5459 11.2358 98.5508 10.2319C99.9085 8.87371 101.755 8.19416 104.088 8.19416C106.421 8.19416 108.46 8.7596 109.857 9.65539V8.19462ZM109.536 19.3577C109.536 17.5565 109.345 16.2268 108.963 15.3701C108.406 14.0414 107.333 13.3766 105.749 13.3766C104.164 13.3766 103.18 13.9968 102.622 15.2376C102.211 16.0943 102.006 17.4677 102.006 19.3573C102.006 21.2468 102.211 22.6349 102.622 23.521C103.18 24.7605 104.222 25.3812 105.749 25.3812C107.276 25.3812 108.406 24.7164 108.963 23.3876C109.345 22.5015 109.536 21.1584 109.536 19.3577ZM119.038 8.28387L127.186 30.2797C127.186 30.2797 126.457 32.1215 126.211 32.7343C125.753 33.8781 125.079 34.4974 123.332 34.4974H122.357V39.9991H124.263C126.389 39.9991 128.042 39.4083 129.224 38.2277C129.903 37.5477 130.426 36.5374 130.952 35.2593C131.511 33.8979 133.414 30.2903 133.414 30.2903L125.107 8.28341L119.038 8.28387ZM136.076 8.27513V13.8072H141.608V8.27513H136.076ZM77.4792 11.4129C79.2124 13.4111 79.7557 16.0248 79.7557 19.256V22.1357H65.7134C65.7134 23.6641 66.1611 24.5737 67.0573 25.5146C67.9531 26.4541 69.1797 26.9239 70.7371 26.9239C72.7638 26.9239 74.1735 26.2047 75.6136 24.7647L79.7562 27.5348C78.6718 29.1613 76.9211 30.3175 75.7171 30.8461C74.3359 31.4631 72.6612 31.7718 70.6929 31.7718C63.6131 31.7718 60.0732 27.8496 60.0732 20.006C60.0732 16.3336 60.998 13.4392 62.8489 11.3241C64.6409 9.29653 67.0504 8.28341 70.0764 8.28341C73.1024 8.28341 75.6577 9.32637 77.4792 11.4129ZM74.438 18.2135C74.4086 17.2744 74.2324 16.1284 73.9094 15.4226C73.2045 13.8362 71.9264 13.0435 70.0755 13.0435C68.2245 13.0435 66.9464 13.8367 66.2416 15.4226C65.9177 16.1284 65.7415 17.2744 65.7129 18.2135H74.438Z" fill="white"/>
</g>
<defs>
<clipPath id="clip0_267_681">
<rect width="142" height="40" fill="white"/>
</clipPath>
</defs>
</svg>
