<svg width="12" height="475" viewBox="0 0 12 475" fill="none" xmlns="http://www.w3.org/2000/svg">
<path d="M0.666667 6C0.666667 8.94552 3.05448 11.3333 6 11.3333C8.94552 11.3333 11.3333 8.94552 11.3333 6C11.3333 3.05448 8.94552 0.666667 6 0.666667C3.05448 0.666667 0.666667 3.05448 0.666667 6ZM0.666667 469C0.666667 471.946 3.05448 474.333 6 474.333C8.94552 474.333 11.3333 471.946 11.3333 469C11.3333 466.054 8.94552 463.667 6 463.667C3.05448 463.667 0.666667 466.054 0.666667 469ZM5 6V7.99569H7V6H5ZM5 11.9871V15.9784H7V11.9871H5ZM5 19.9698V23.9612H7V19.9698H5ZM5 27.9526V31.944H7V27.9526H5ZM5 35.9353V39.9267H7V35.9353H5ZM5 43.9181V47.9095H7V43.9181H5ZM5 51.9009V55.8922H7V51.9009H5ZM5 59.8836V63.875H7V59.8836H5ZM5 67.8664V71.8578H7V67.8664H5ZM5 75.8491V79.8405H7V75.8491H5ZM5 83.8319V87.8233H7V83.8319H5ZM5 91.8147V95.806H7V91.8147H5ZM5 99.7974V103.789H7V99.7974H5ZM5 107.78V111.772H7V107.78H5ZM5 115.763V119.754H7V115.763H5ZM5 123.746V127.737H7V123.746H5ZM5 131.728V135.72H7V131.728H5ZM5 139.711V143.703H7V139.711H5ZM5 147.694V151.685H7L7 147.694H5ZM5 155.677V159.668H7V155.677H5ZM5 163.659L5 167.651H7V163.659H5ZM5 171.642V175.634H7V171.642H5ZM5 179.625V183.616H7V179.625H5ZM5 187.608V191.599H7V187.608H5ZM5 195.59V199.582H7V195.59H5ZM5 203.573V207.565H7V203.573H5ZM5 211.556V215.547H7V211.556H5ZM5 219.539V223.53H7V219.539H5ZM5 227.522V231.513H7V227.522H5ZM5 235.504V239.496H7V235.504H5ZM5 243.487V247.478H7V243.487H5ZM5 251.47V255.461H7V251.47H5ZM5 259.453V263.444H7V259.453H5ZM5 267.435V271.427H7V267.435H5ZM5 275.418V279.41H7V275.418H5ZM5 283.401V287.392H7V283.401H5ZM5 291.384V295.375H7V291.384H5ZM5 299.366V303.358H7V299.366H5ZM5 307.349V311.341H7V307.349H5ZM5 315.332V319.323H7V315.332H5ZM5 323.315V327.306H7V323.315H5ZM5 331.298V335.289H7V331.298H5ZM5 339.28V343.272H7V339.28H5ZM5 347.263V351.255H7V347.263H5ZM5 355.246L5 359.237H7V355.246H5ZM5 363.229V367.22H7V363.229H5ZM5 371.212V375.203H7L7 371.212H5ZM5 379.194V383.186H7V379.194H5ZM5 387.177V391.169H7V387.177H5ZM5 395.16V399.151H7V395.16H5ZM5 403.143V407.134H7V403.143H5ZM5 411.126V415.117H7V411.126H5ZM5 419.108V423.1H7V419.108H5ZM5 427.091V431.082H7V427.091H5ZM5 435.074V439.065H7V435.074H5ZM5 443.057V447.048H7V443.057H5ZM5 451.039V455.031H7V451.039H5ZM5 459.022V463.014H7V459.022H5ZM5 467.005V469H7V467.005H5Z" fill="white"/>
</svg>
