<svg width="12" height="395" viewBox="0 0 12 395" fill="none" xmlns="http://www.w3.org/2000/svg">
<path d="M0.666667 6C0.666667 8.94552 3.05448 11.3333 6 11.3333C8.94552 11.3333 11.3333 8.94552 11.3333 6C11.3333 3.05448 8.94552 0.666667 6 0.666667C3.05448 0.666667 0.666667 3.05448 0.666667 6ZM0.666667 389C0.666667 391.946 3.05448 394.333 6 394.333C8.94552 394.333 11.3333 391.946 11.3333 389C11.3333 386.054 8.94552 383.667 6 383.667C3.05448 383.667 0.666667 386.054 0.666667 389ZM5 6V7.99479H7V6H5ZM5 11.9844V15.974H7V11.9844H5ZM5 19.9635V23.9531H7V19.9635H5ZM5 27.9427V31.9323H7V27.9427H5ZM5 35.9219V39.9115H7V35.9219H5ZM5 43.901V47.8906H7V43.901H5ZM5 51.8802V55.8698H7V51.8802H5ZM5 59.8594V63.849H7V59.8594H5ZM5 67.8385V71.8281H7V67.8385H5ZM5 75.8177V79.8073H7V75.8177H5ZM5 83.7969V87.7865H7V83.7969H5ZM5 91.776V95.7656H7V91.776H5ZM5 99.7552V103.745H7V99.7552H5ZM5 107.734V111.724H7V107.734H5ZM5 115.714V119.703H7V115.714H5ZM5 123.693V127.682H7V123.693H5ZM5 131.672V135.661H7V131.672H5ZM5 139.651V143.641H7V139.651H5ZM5 147.63V151.62H7L7 147.63H5ZM5 155.609V159.599H7V155.609H5ZM5 163.589L5 167.578H7V163.589H5ZM5 171.568V175.557H7V171.568H5ZM5 179.547V183.536H7V179.547H5ZM5 187.526V191.516H7V187.526H5ZM5 195.505V199.495H7V195.505H5ZM5 203.484V207.474H7V203.484H5ZM5 211.463V215.453H7V211.463H5ZM5 219.443V223.432H7V219.443H5ZM5 227.422V231.411H7V227.422H5ZM5 235.401V239.391H7V235.401H5ZM5 243.38V247.37H7V243.38H5ZM5 251.359V255.349H7V251.359H5ZM5 259.338V263.328H7V259.338H5ZM5 267.318V271.307H7V267.318H5ZM5 275.297V279.286H7V275.297H5ZM5 283.276V287.266H7V283.276H5ZM5 291.255V295.245H7V291.255H5ZM5 299.234V303.224H7V299.234H5ZM5 307.214V311.203H7V307.214H5ZM5 315.193V319.182H7V315.193H5ZM5 323.172V327.161H7V323.172H5ZM5 331.151V335.141H7V331.151H5ZM5 339.13V343.12H7V339.13H5ZM5 347.109V351.099H7V347.109H5ZM5 355.089L5 359.078H7V355.089H5ZM5 363.068V367.057H7V363.068H5ZM5 371.047V375.037H7L7 371.047H5ZM5 379.026V383.016H7V379.026H5ZM5 387.005V389H7V387.005H5Z" fill="white"/>
</svg>
