<svg width="330" height="330" viewBox="0 0 330 330" fill="none" xmlns="http://www.w3.org/2000/svg">
<rect width="330" height="330" fill="#001735"/>
<path d="M186.502 80.1388C186.502 102.759 167.427 121.097 162.556 121.097C156.262 121.097 138.816 102.759 138.816 80.1388C138.816 57.5183 158.848 39.1808 162.556 39.1808C166.264 39.1808 186.502 57.5183 186.502 80.1388Z" fill="url(#paint0_linear_1_81)"/>
<path d="M191.894 114.882C178.092 125.027 158.349 121.613 156.164 118.64C153.341 114.8 156.706 95.9313 170.507 85.7864C184.309 75.6415 204.482 79.6398 206.145 81.9024C207.808 84.1651 205.696 104.737 191.894 114.882Z" fill="url(#paint1_linear_1_81)"/>
<path d="M222.981 156.672C200.361 156.643 182.048 137.545 182.054 132.673C182.062 126.379 200.422 108.957 223.042 108.985C245.662 109.014 263.974 129.07 263.97 132.778C263.965 136.486 245.602 156.701 222.981 156.672Z" fill="url(#paint2_linear_1_81)"/>
<path d="M188.231 162.019C178.104 148.204 181.543 128.466 184.518 126.285C188.362 123.467 207.226 126.855 217.354 140.67C227.481 154.484 223.457 174.652 221.192 176.312C218.928 177.972 198.358 175.834 188.231 162.019Z" fill="url(#paint3_linear_1_81)"/>
<path d="M143.978 193.615C143.978 170.859 163.167 152.411 168.068 152.411C174.4 152.411 191.951 170.859 191.951 193.615C191.951 216.371 171.798 234.819 168.068 234.819C164.337 234.819 143.978 216.371 143.978 193.615Z" fill="url(#paint4_linear_1_81)"/>
<path d="M138.556 158.663C152.44 148.457 172.302 151.892 174.5 154.882C177.34 158.745 173.955 177.727 160.071 187.933C146.186 198.139 125.892 194.117 124.219 191.84C122.546 189.564 124.671 168.869 138.556 158.663Z" fill="url(#paint5_linear_1_81)"/>
<path d="M107.265 116.623C130.022 116.652 148.445 135.865 148.439 140.766C148.431 147.098 129.961 164.625 107.204 164.596C84.4477 164.567 66.0257 144.391 66.0304 140.66C66.0352 136.93 84.5088 116.594 107.265 116.623Z" fill="url(#paint6_linear_1_81)"/>
<path d="M142.223 111.242C152.411 125.14 148.951 144.998 145.958 147.192C142.091 150.026 123.113 146.618 112.925 132.72C102.737 118.822 106.785 98.5337 109.064 96.8635C111.342 95.1932 132.035 97.3446 142.223 111.242Z" fill="url(#paint7_linear_1_81)"/>
<path d="M82.1455 259.899C81.056 259.899 80.2167 260.245 79.6278 260.937C79.0388 261.629 78.7443 262.571 78.7443 263.764C78.7443 264.589 78.7885 265.376 78.8768 266.127C78.9799 266.863 79.083 267.592 79.186 268.314C79.3038 269.035 79.4069 269.749 79.4952 270.456C79.5983 271.148 79.6498 271.847 79.6498 272.554C79.6498 273.099 79.5689 273.622 79.4069 274.122C79.2449 274.608 79.0167 275.05 78.7222 275.447C78.4278 275.845 78.067 276.191 77.64 276.485C77.2278 276.765 76.764 276.971 76.2486 277.104C77.2793 277.398 78.1038 277.958 78.7222 278.782C79.3406 279.607 79.6498 280.571 79.6498 281.676C79.6498 282.382 79.5983 283.089 79.4952 283.796C79.4069 284.488 79.3038 285.195 79.186 285.916C79.083 286.638 78.9799 287.374 78.8768 288.125C78.7885 288.876 78.7443 289.656 78.7443 290.466C78.7443 291.658 79.0388 292.593 79.6278 293.271C80.2167 293.963 81.056 294.309 82.1455 294.309H82.4547C82.6609 294.309 82.8817 294.39 83.1173 294.552C83.3676 294.714 83.4928 294.964 83.4928 295.303V297.445H82.3222C81.0118 297.445 79.8707 297.268 78.8989 296.915C77.9419 296.561 77.1394 296.061 76.4916 295.413C75.8584 294.78 75.3799 294.014 75.056 293.116C74.7468 292.233 74.5922 291.254 74.5922 290.179C74.5922 289.442 74.6437 288.721 74.7468 288.014C74.8646 287.293 74.9824 286.579 75.1002 285.872C75.2327 285.165 75.3505 284.458 75.4535 283.752C75.5713 283.045 75.6302 282.338 75.6302 281.631C75.6302 280.704 75.3946 279.953 74.9235 279.379C74.467 278.804 73.7603 278.517 72.8032 278.517V275.712C73.7603 275.712 74.467 275.425 74.9235 274.851C75.3946 274.277 75.6302 273.526 75.6302 272.598C75.6302 271.892 75.5713 271.185 75.4535 270.478C75.3505 269.771 75.2327 269.065 75.1002 268.358C74.9824 267.651 74.8646 266.944 74.7468 266.238C74.6437 265.516 74.5922 264.787 74.5922 264.051C74.5922 262.976 74.7468 261.997 75.056 261.114C75.3799 260.216 75.8584 259.45 76.4916 258.817C77.1394 258.169 77.9419 257.668 78.8989 257.315C79.8707 256.962 81.0118 256.785 82.3222 256.785H83.4928V258.927C83.4928 259.266 83.3676 259.516 83.1173 259.678C82.8817 259.825 82.6609 259.899 82.4547 259.899H82.1455Z" fill="white"/>
<path d="M108.775 279.644C108.775 281.425 108.554 283.03 108.112 284.458C107.685 285.872 107.037 287.079 106.168 288.081C105.314 289.067 104.247 289.833 102.966 290.377C101.7 290.908 100.227 291.173 98.5488 291.173C97.7831 291.173 97.0248 291.121 96.2739 291.018C95.523 290.93 94.7426 290.782 93.9328 290.576L94.1979 287.484C94.242 287.19 94.3525 286.954 94.5291 286.777C94.7206 286.601 94.9929 286.512 95.3463 286.512C95.6114 286.512 95.95 286.571 96.3623 286.689C96.7893 286.792 97.3414 286.844 98.0187 286.844C98.9169 286.844 99.712 286.711 100.404 286.446C101.111 286.181 101.7 285.769 102.171 285.209C102.657 284.635 103.017 283.906 103.253 283.023C103.503 282.125 103.629 281.042 103.629 279.776V259.016H108.775V279.644Z" fill="white"/>
<path d="M144.699 286.645L144.676 290.819H124.843V259.016H144.676V263.19H130.034V272.775H141.739V276.817H130.034V286.645H144.699Z" fill="white"/>
<path d="M175.958 278.893L171.585 267.276C171.231 266.377 170.87 265.236 170.502 263.852C170.34 264.544 170.164 265.185 169.972 265.774C169.781 266.348 169.604 266.856 169.442 267.298L165.069 278.893H175.958ZM185.742 290.819H181.744C181.288 290.819 180.92 290.709 180.64 290.488C180.36 290.252 180.147 289.965 179.999 289.627L177.349 282.603H163.656L161.005 289.627C160.888 289.921 160.682 290.193 160.387 290.444C160.093 290.694 159.724 290.819 159.283 290.819H155.285L167.896 259.016H173.131L185.742 290.819Z" fill="white"/>
<path d="M224.614 259.016V290.819H221.985C221.588 290.819 221.249 290.753 220.97 290.62C220.69 290.473 220.425 290.238 220.174 289.914L202.705 267.474C202.749 267.901 202.778 268.328 202.793 268.755C202.822 269.168 202.837 269.55 202.837 269.904V290.819H198.287V259.016H200.982C201.203 259.016 201.387 259.03 201.534 259.06C201.696 259.074 201.843 259.111 201.976 259.17C202.108 259.229 202.233 259.317 202.351 259.435C202.469 259.553 202.594 259.7 202.727 259.877L220.219 282.338C220.174 281.882 220.138 281.433 220.108 280.991C220.093 280.549 220.086 280.137 220.086 279.754V259.016H224.614Z" fill="white"/>
<path d="M249.287 278.517C248.33 278.517 247.616 278.804 247.145 279.379C246.688 279.953 246.46 280.704 246.46 281.631C246.46 282.338 246.512 283.045 246.615 283.752C246.732 284.458 246.85 285.165 246.968 285.872C247.101 286.579 247.218 287.293 247.321 288.014C247.439 288.721 247.498 289.442 247.498 290.179C247.498 291.254 247.336 292.233 247.012 293.116C246.703 294.014 246.224 294.78 245.577 295.413C244.943 296.061 244.141 296.561 243.169 296.915C242.212 297.268 241.086 297.445 239.79 297.445H238.597V295.303C238.597 294.964 238.723 294.714 238.973 294.552C239.223 294.39 239.444 294.309 239.636 294.309H239.967C241.042 294.309 241.874 293.963 242.463 293.271C243.066 292.593 243.368 291.658 243.368 290.466C243.368 289.656 243.316 288.876 243.213 288.125C243.125 287.374 243.022 286.638 242.904 285.916C242.786 285.195 242.676 284.488 242.573 283.796C242.485 283.089 242.44 282.382 242.44 281.676C242.44 280.571 242.75 279.607 243.368 278.782C243.986 277.958 244.811 277.398 245.842 277.104C245.326 276.971 244.855 276.765 244.428 276.485C244.016 276.191 243.663 275.845 243.368 275.447C243.074 275.05 242.845 274.608 242.683 274.122C242.521 273.622 242.44 273.099 242.44 272.554C242.44 271.847 242.485 271.148 242.573 270.456C242.676 269.749 242.786 269.035 242.904 268.314C243.022 267.592 243.125 266.863 243.213 266.127C243.316 265.376 243.368 264.589 243.368 263.764C243.368 262.571 243.066 261.629 242.463 260.937C241.874 260.245 241.042 259.899 239.967 259.899H239.636C239.444 259.899 239.223 259.825 238.973 259.678C238.723 259.516 238.597 259.266 238.597 258.927V256.785H239.79C241.086 256.785 242.212 256.962 243.169 257.315C244.141 257.668 244.943 258.169 245.577 258.817C246.224 259.45 246.703 260.216 247.012 261.114C247.336 261.997 247.498 262.976 247.498 264.051C247.498 264.787 247.439 265.516 247.321 266.238C247.218 266.944 247.101 267.651 246.968 268.358C246.85 269.065 246.732 269.771 246.615 270.478C246.512 271.185 246.46 271.892 246.46 272.598C246.46 273.526 246.688 274.277 247.145 274.851C247.616 275.425 248.33 275.712 249.287 275.712V278.517Z" fill="white"/>
<defs>
<linearGradient id="paint0_linear_1_81" x1="165" y1="39.1808" x2="165" y2="297.445" gradientUnits="userSpaceOnUse">
<stop stop-color="#D8A0E6"/>
<stop offset="1" stop-color="#8612AF"/>
</linearGradient>
<linearGradient id="paint1_linear_1_81" x1="162.991" y1="42.1624" x2="159.988" y2="292.666" gradientUnits="userSpaceOnUse">
<stop stop-color="#70BFE8"/>
<stop offset="1" stop-color="#1E68A4"/>
</linearGradient>
<linearGradient id="paint2_linear_1_81" x1="165" y1="39.1808" x2="165" y2="297.445" gradientUnits="userSpaceOnUse">
<stop stop-color="#D8A0E6"/>
<stop offset="1" stop-color="#8612AF"/>
</linearGradient>
<linearGradient id="paint3_linear_1_81" x1="162.991" y1="42.1624" x2="159.988" y2="292.666" gradientUnits="userSpaceOnUse">
<stop stop-color="#70BFE8"/>
<stop offset="1" stop-color="#1E68A4"/>
</linearGradient>
<linearGradient id="paint4_linear_1_81" x1="165" y1="39.1808" x2="165" y2="297.445" gradientUnits="userSpaceOnUse">
<stop stop-color="#D8A0E6"/>
<stop offset="1" stop-color="#8612AF"/>
</linearGradient>
<linearGradient id="paint5_linear_1_81" x1="162.991" y1="42.1624" x2="159.988" y2="292.666" gradientUnits="userSpaceOnUse">
<stop stop-color="#70BFE8"/>
<stop offset="1" stop-color="#1E68A4"/>
</linearGradient>
<linearGradient id="paint6_linear_1_81" x1="165" y1="39.1808" x2="165" y2="297.445" gradientUnits="userSpaceOnUse">
<stop stop-color="#D8A0E6"/>
<stop offset="1" stop-color="#8612AF"/>
</linearGradient>
<linearGradient id="paint7_linear_1_81" x1="162.991" y1="42.1624" x2="159.988" y2="292.666" gradientUnits="userSpaceOnUse">
<stop stop-color="#70BFE8"/>
<stop offset="1" stop-color="#1E68A4"/>
</linearGradient>
</defs>
</svg>
