<svg width="22" height="23" viewBox="0 0 22 23" fill="none" xmlns="http://www.w3.org/2000/svg">
<g id="House">
<path id="Vector" d="M18.7258 9.96168L11.8508 3.08668C11.7391 2.97495 11.6064 2.88632 11.4604 2.82585C11.3145 2.76538 11.158 2.73425 11 2.73425C10.842 2.73425 10.6855 2.76538 10.5396 2.82585C10.3936 2.88632 10.2609 2.97495 10.1492 3.08668L3.27422 9.96168C3.1622 10.0732 3.07338 10.2058 3.01291 10.3518C2.95243 10.4978 2.92149 10.6544 2.92188 10.8125V19.0625C2.92188 19.1992 2.9762 19.3304 3.0729 19.4271C3.1696 19.5238 3.30075 19.5781 3.4375 19.5781H8.9375C9.07426 19.5781 9.20541 19.5238 9.30211 19.4271C9.3988 19.3304 9.45313 19.1992 9.45313 19.0625V14.0781H12.5469V19.0625C12.5469 19.1992 12.6012 19.3304 12.6979 19.4271C12.7946 19.5238 12.9258 19.5781 13.0625 19.5781H18.5625C18.6993 19.5781 18.8304 19.5238 18.9271 19.4271C19.0238 19.3304 19.0781 19.1992 19.0781 19.0625V10.8125C19.0785 10.6544 19.0476 10.4978 18.9871 10.3518C18.9266 10.2058 18.8378 10.0732 18.7258 9.96168ZM18.0469 18.5468H13.5781V13.5625C13.5781 13.4257 13.5238 13.2946 13.4271 13.1979C13.3304 13.1012 13.1993 13.0468 13.0625 13.0468H8.9375C8.80075 13.0468 8.6696 13.1012 8.5729 13.1979C8.4762 13.2946 8.42188 13.4257 8.42188 13.5625V18.5468H3.95313V10.8125C3.953 10.7898 3.95733 10.7674 3.96589 10.7465C3.97444 10.7255 3.98704 10.7065 4.00297 10.6904L10.878 3.81543C10.894 3.79932 10.913 3.78654 10.9339 3.77781C10.9549 3.76909 10.9773 3.76459 11 3.76459C11.0227 3.76459 11.0452 3.76909 11.0661 3.77781C11.087 3.78654 11.1061 3.79932 11.122 3.81543L17.997 10.6904C18.013 10.7065 18.0256 10.7255 18.0341 10.7465C18.0427 10.7674 18.047 10.7898 18.0469 10.8125V18.5468Z" fill="white"/>
</g>
</svg>
